<mxfile host="app.diagrams.net" agent="Mozilla/5.0 (X11; Ubuntu; Linux x86_64; rv:133.0) Gecko/20100101 Firefox/133.0" version="25.0.3">
  <diagram name="Page-1" id="jiiQhXlAMz92_uCKhO34">
    <mxGraphModel dx="1434" dy="822" grid="1" gridSize="10" guides="1" tooltips="1" connect="1" arrows="1" fold="1" page="1" pageScale="1" pageWidth="850" pageHeight="1100" math="0" shadow="0">
      <root>
        <mxCell id="0" />
        <mxCell id="1" parent="0" />
        <mxCell id="V7bFDbgL-2ccECLvx8o4-1" value=".164" style="ellipse;whiteSpace=wrap;html=1;aspect=fixed;" vertex="1" parent="1">
          <mxGeometry x="70" y="90" width="80" height="80" as="geometry" />
        </mxCell>
        <mxCell id="V7bFDbgL-2ccECLvx8o4-2" value="" style="ellipse;whiteSpace=wrap;html=1;aspect=fixed;" vertex="1" parent="1">
          <mxGeometry x="250" y="90" width="80" height="80" as="geometry" />
        </mxCell>
        <mxCell id="V7bFDbgL-2ccECLvx8o4-3" value=".46" style="ellipse;whiteSpace=wrap;html=1;aspect=fixed;" vertex="1" parent="1">
          <mxGeometry x="410" y="90" width="80" height="80" as="geometry" />
        </mxCell>
        <mxCell id="V7bFDbgL-2ccECLvx8o4-4" value=".180" style="ellipse;whiteSpace=wrap;html=1;aspect=fixed;" vertex="1" parent="1">
          <mxGeometry x="570" y="90" width="80" height="80" as="geometry" />
        </mxCell>
        <mxCell id="V7bFDbgL-2ccECLvx8o4-5" value="&lt;div&gt;Hostname: Atropia&lt;/div&gt;&lt;div&gt;ip: 10.50.27.164&lt;/div&gt;&lt;div&gt;MAC: UNK&lt;br&gt;&lt;/div&gt;&lt;div&gt;Interface: UNK&lt;br&gt;&lt;/div&gt;&lt;div&gt;Open Ports: UNK&lt;/div&gt;&lt;div&gt;Creds: UNK&lt;br&gt;&lt;/div&gt;" style="text;html=1;align=center;verticalAlign=middle;resizable=0;points=[];autosize=1;strokeColor=none;fillColor=none;" vertex="1" parent="1">
          <mxGeometry x="50" y="165" width="120" height="100" as="geometry" />
        </mxCell>
        <mxCell id="V7bFDbgL-2ccECLvx8o4-6" value="&lt;div&gt;Hostname: Pineland&lt;/div&gt;&lt;div&gt;ip: 10.50.29.131&lt;/div&gt;&lt;div&gt;MAC: UNK&lt;br&gt;&lt;/div&gt;&lt;div&gt;Interface: UNK&lt;br&gt;&lt;/div&gt;&lt;div&gt;Open Ports: UNK&lt;/div&gt;&lt;div&gt;Creds: UNK&lt;/div&gt;" style="text;html=1;align=center;verticalAlign=middle;resizable=0;points=[];autosize=1;strokeColor=none;fillColor=none;" vertex="1" parent="1">
          <mxGeometry x="225" y="165" width="130" height="100" as="geometry" />
        </mxCell>
        <mxCell id="V7bFDbgL-2ccECLvx8o4-7" value="&lt;div&gt;Hostname: UNK&lt;br&gt;&lt;/div&gt;&lt;div&gt;ip: 10.50.28.46&lt;br&gt;&lt;/div&gt;&lt;div&gt;MAC: UNK&lt;br&gt;&lt;/div&gt;&lt;div&gt;Interface: UNK&lt;br&gt;&lt;/div&gt;&lt;div&gt;Open Ports: UNK&lt;/div&gt;&lt;div&gt;Creds: UNK&lt;/div&gt;" style="text;html=1;align=center;verticalAlign=middle;resizable=0;points=[];autosize=1;strokeColor=none;fillColor=none;" vertex="1" parent="1">
          <mxGeometry x="390" y="175" width="120" height="100" as="geometry" />
        </mxCell>
        <mxCell id="V7bFDbgL-2ccECLvx8o4-8" value="&lt;div&gt;Hostname: Internet_Host&lt;br&gt;&lt;/div&gt;&lt;div&gt;ip: 10.50.26.180&lt;br&gt;&lt;/div&gt;&lt;div&gt;MAC: UNK&lt;br&gt;&lt;/div&gt;&lt;div&gt;Interface: UNK&lt;br&gt;&lt;/div&gt;&lt;div&gt;Open Ports: UNK&lt;/div&gt;&lt;div&gt;Creds: student:password&lt;br&gt;&lt;/div&gt;" style="text;html=1;align=center;verticalAlign=middle;resizable=0;points=[];autosize=1;strokeColor=none;fillColor=none;" vertex="1" parent="1">
          <mxGeometry x="530" y="165" width="160" height="100" as="geometry" />
        </mxCell>
        <mxCell id="V7bFDbgL-2ccECLvx8o4-9" value="T3" style="text;html=1;align=center;verticalAlign=middle;resizable=0;points=[];autosize=1;strokeColor=none;fillColor=none;" vertex="1" parent="1">
          <mxGeometry x="90" y="90" width="40" height="30" as="geometry" />
        </mxCell>
        <mxCell id="V7bFDbgL-2ccECLvx8o4-10" value=".131" style="text;html=1;align=center;verticalAlign=middle;resizable=0;points=[];autosize=1;strokeColor=none;fillColor=none;" vertex="1" parent="1">
          <mxGeometry x="265" y="115" width="50" height="30" as="geometry" />
        </mxCell>
        <mxCell id="V7bFDbgL-2ccECLvx8o4-11" value="T4" style="text;html=1;align=center;verticalAlign=middle;resizable=0;points=[];autosize=1;strokeColor=none;fillColor=none;" vertex="1" parent="1">
          <mxGeometry x="270" y="89" width="40" height="30" as="geometry" />
        </mxCell>
        <mxCell id="V7bFDbgL-2ccECLvx8o4-12" value="T5" style="text;html=1;align=center;verticalAlign=middle;resizable=0;points=[];autosize=1;strokeColor=none;fillColor=none;" vertex="1" parent="1">
          <mxGeometry x="430" y="90" width="40" height="30" as="geometry" />
        </mxCell>
        <mxCell id="V7bFDbgL-2ccECLvx8o4-13" value="T1" style="text;html=1;align=center;verticalAlign=middle;resizable=0;points=[];autosize=1;strokeColor=none;fillColor=none;" vertex="1" parent="1">
          <mxGeometry x="590" y="90" width="40" height="30" as="geometry" />
        </mxCell>
        <mxCell id="V7bFDbgL-2ccECLvx8o4-14" value=".115" style="ellipse;whiteSpace=wrap;html=1;aspect=fixed;" vertex="1" parent="1">
          <mxGeometry x="70" y="290" width="80" height="80" as="geometry" />
        </mxCell>
        <mxCell id="V7bFDbgL-2ccECLvx8o4-15" value="&lt;div&gt;Hostname: Blue_Host-4&lt;/div&gt;&lt;div&gt;IP: 172.16.82.115&lt;/div&gt;&lt;div&gt;MAC: UNK&lt;br&gt;&lt;/div&gt;&lt;div&gt;Open Ports: UNK&lt;br&gt;&lt;/div&gt;&lt;div&gt;creds: student:password&lt;/div&gt;&lt;div&gt;&lt;br&gt;&lt;/div&gt;" style="text;html=1;align=center;verticalAlign=middle;resizable=0;points=[];autosize=1;strokeColor=none;fillColor=none;" vertex="1" parent="1">
          <mxGeometry x="35" y="370" width="150" height="100" as="geometry" />
        </mxCell>
        <mxCell id="V7bFDbgL-2ccECLvx8o4-16" value="T2" style="text;html=1;align=center;verticalAlign=middle;resizable=0;points=[];autosize=1;strokeColor=none;fillColor=none;" vertex="1" parent="1">
          <mxGeometry x="90" y="290" width="40" height="30" as="geometry" />
        </mxCell>
        <mxCell id="V7bFDbgL-2ccECLvx8o4-17" value=".10" style="ellipse;whiteSpace=wrap;html=1;aspect=fixed;" vertex="1" parent="1">
          <mxGeometry x="250" y="290" width="80" height="80" as="geometry" />
        </mxCell>
        <mxCell id="V7bFDbgL-2ccECLvx8o4-18" value="RELAY" style="text;html=1;align=center;verticalAlign=middle;resizable=0;points=[];autosize=1;strokeColor=none;fillColor=none;" vertex="1" parent="1">
          <mxGeometry x="260" y="290" width="60" height="30" as="geometry" />
        </mxCell>
        <mxCell id="V7bFDbgL-2ccECLvx8o4-19" value="&lt;div&gt;Hostname: Blue_INT_DMZ_HOST-1&lt;/div&gt;&lt;div&gt;IP: 172.16.40.10&lt;/div&gt;&lt;div&gt;MAC: UNK&lt;br&gt;&lt;/div&gt;&lt;div&gt;Open Ports: UNK&lt;br&gt;&lt;/div&gt;&lt;div&gt;creds: student:password&lt;/div&gt;&lt;div&gt;&lt;br&gt;&lt;/div&gt;" style="text;html=1;align=center;verticalAlign=middle;resizable=0;points=[];autosize=1;strokeColor=none;fillColor=none;" vertex="1" parent="1">
          <mxGeometry x="180" y="370" width="220" height="100" as="geometry" />
        </mxCell>
      </root>
    </mxGraphModel>
  </diagram>
</mxfile>
